<svg width="28" height="28" viewBox="0 0 28 28" fill="none" xmlns="http://www.w3.org/2000/svg">
<g opacity="0.6">
<path d="M19.8333 23.3333H19.6C17.6398 23.3333 16.6597 23.3333 15.911 22.9519C15.2525 22.6163 14.717 22.0809 14.3815 21.4223C14 20.6736 14 19.6935 14 17.7333V10.2667C14 8.30648 14 7.32639 14.3815 6.57769C14.717 5.91913 15.2525 5.3837 15.911 5.04814C16.6597 4.66666 17.6398 4.66666 19.6 4.66666H19.8333M19.8333 23.3333C19.8333 24.622 20.878 25.6667 22.1667 25.6667C23.4553 25.6667 24.5 24.622 24.5 23.3333C24.5 22.0447 23.4553 21 22.1667 21C20.878 21 19.8333 22.0447 19.8333 23.3333ZM19.8333 4.66666C19.8333 5.95533 20.878 6.99999 22.1667 6.99999C23.4553 6.99999 24.5 5.95533 24.5 4.66666C24.5 3.378 23.4553 2.33333 22.1667 2.33333C20.878 2.33333 19.8333 3.378 19.8333 4.66666ZM8.16667 14L19.8333 14M8.16667 14C8.16667 15.2887 7.122 16.3333 5.83333 16.3333C4.54467 16.3333 3.5 15.2887 3.5 14C3.5 12.7113 4.54467 11.6667 5.83333 11.6667C7.122 11.6667 8.16667 12.7113 8.16667 14ZM19.8333 14C19.8333 15.2887 20.878 16.3333 22.1667 16.3333C23.4553 16.3333 24.5 15.2887 24.5 14C24.5 12.7113 23.4553 11.6667 22.1667 11.6667C20.878 11.6667 19.8333 12.7113 19.8333 14Z" stroke="white" stroke-width="2" stroke-linecap="round" stroke-linejoin="round"/>
</g>
</svg>
