<svg width="28" height="28" viewBox="0 0 28 28" fill="none" xmlns="http://www.w3.org/2000/svg">
<g opacity="0.6">
<path d="M23.3334 13.9314V7.93334C23.3334 5.97315 23.3334 4.99306 22.9519 4.24437C22.6163 3.5858 22.0809 3.05037 21.4223 2.71481C20.6736 2.33334 19.6935 2.33334 17.7334 2.33334H10.2667C8.3065 2.33334 7.32641 2.33334 6.57772 2.71481C5.91915 3.05037 5.38372 3.5858 5.04816 4.24437C4.66669 4.99306 4.66669 5.97315 4.66669 7.93334V20.0667C4.66669 22.0269 4.66669 23.0069 5.04816 23.7556C5.38372 24.4142 5.91915 24.9496 6.57772 25.2852C7.32641 25.6667 8.3065 25.6667 10.2667 25.6667H16.3334M16.3334 12.8333H9.33335M11.6667 17.5H9.33335M18.6667 8.16667H9.33335M17.5 19.8333H24.5" stroke="white" stroke-width="2" stroke-linecap="round" stroke-linejoin="round"/>
</g>
</svg>
