<svg width="28" height="28" viewBox="0 0 28 28" fill="none" xmlns="http://www.w3.org/2000/svg">
<g opacity="0.6">
<path d="M10.6049 10.5C10.8792 9.72026 11.4206 9.06277 12.1332 8.64397C12.8458 8.22517 13.6837 8.07208 14.4983 8.21181C15.313 8.35155 16.0519 8.77509 16.5842 9.40743C17.1165 10.0398 17.4078 10.8401 17.4066 11.6666C17.4066 14 13.9066 15.1666 13.9066 15.1666M14 19.8333H14.0116M2.33331 9.94319V18.0568C2.33331 18.3422 2.33331 18.4848 2.36555 18.6191C2.39413 18.7381 2.44127 18.8519 2.50523 18.9563C2.57738 19.0741 2.67827 19.175 2.88005 19.3767L8.62325 25.1199C8.82502 25.3217 8.92591 25.4226 9.04365 25.4947C9.14803 25.5587 9.26183 25.6058 9.38088 25.6344C9.51514 25.6667 9.65782 25.6667 9.94318 25.6667H18.0568C18.3421 25.6667 18.4848 25.6667 18.6191 25.6344C18.7381 25.6058 18.8519 25.5587 18.9563 25.4947C19.074 25.4226 19.1749 25.3217 19.3767 25.1199L25.1199 19.3767C25.3217 19.175 25.4226 19.0741 25.4947 18.9563C25.5587 18.8519 25.6058 18.7381 25.6344 18.6191C25.6666 18.4848 25.6666 18.3422 25.6666 18.0568V9.94319C25.6666 9.65784 25.6666 9.51516 25.6344 9.38089C25.6058 9.26185 25.5587 9.14805 25.4947 9.04366C25.4226 8.92593 25.3217 8.82504 25.1199 8.62326L19.3767 2.88006C19.1749 2.67829 19.074 2.5774 18.9563 2.50525C18.8519 2.44128 18.7381 2.39414 18.6191 2.36556C18.4848 2.33333 18.3421 2.33333 18.0568 2.33333H9.94318C9.65782 2.33333 9.51514 2.33333 9.38088 2.36556C9.26183 2.39414 9.14803 2.44128 9.04365 2.50525C8.92591 2.5774 8.82502 2.67829 8.62325 2.88006L2.88005 8.62326C2.67827 8.82504 2.57738 8.92593 2.50523 9.04366C2.44127 9.14805 2.39413 9.26185 2.36555 9.38089C2.33331 9.51516 2.33331 9.65784 2.33331 9.94319Z" stroke="white" stroke-width="2" stroke-linecap="round" stroke-linejoin="round"/>
</g>
</svg>
