<svg width="28" height="28" viewBox="0 0 28 28" fill="none" xmlns="http://www.w3.org/2000/svg">
<g opacity="0.6">
<path d="M15.146 3.2247C14.7361 2.9059 14.5312 2.7465 14.3049 2.68523C14.1052 2.63117 13.8948 2.63117 13.6951 2.68523C13.4688 2.7465 13.2639 2.9059 12.854 3.2247L4.94129 9.37901C4.41236 9.7904 4.14789 9.99609 3.95736 10.2537C3.78859 10.4819 3.66287 10.7389 3.58637 11.0123C3.5 11.3208 3.5 11.6558 3.5 12.3259V20.7667C3.5 22.0735 3.5 22.7269 3.75432 23.226C3.97802 23.665 4.33498 24.022 4.77402 24.2457C5.27315 24.5 5.92654 24.5 7.23333 24.5H9.56667C9.89336 24.5 10.0567 24.5 10.1815 24.4364C10.2913 24.3805 10.3805 24.2913 10.4364 24.1815C10.5 24.0567 10.5 23.8934 10.5 23.5667V15.8667C10.5 15.2133 10.5 14.8866 10.6272 14.637C10.739 14.4175 10.9175 14.239 11.137 14.1272C11.3866 14 11.7133 14 12.3667 14H15.6333C16.2867 14 16.6134 14 16.863 14.1272C17.0825 14.239 17.261 14.4175 17.3728 14.637C17.5 14.8866 17.5 15.2133 17.5 15.8667V23.5667C17.5 23.8934 17.5 24.0567 17.5636 24.1815C17.6195 24.2913 17.7087 24.3805 17.8185 24.4364C17.9433 24.5 18.1066 24.5 18.4333 24.5H20.7667C22.0735 24.5 22.7269 24.5 23.226 24.2457C23.665 24.022 24.022 23.665 24.2457 23.226C24.5 22.7269 24.5 22.0735 24.5 20.7667V12.3259C24.5 11.6558 24.5 11.3208 24.4136 11.0123C24.3371 10.7389 24.2114 10.4819 24.0426 10.2537C23.8521 9.99609 23.5876 9.7904 23.0587 9.37901L15.146 3.2247Z" stroke="white" stroke-width="2" stroke-linecap="round" stroke-linejoin="round"/>
</g>
</svg>
