<svg width="28" height="28" viewBox="0 0 28 28" fill="none" xmlns="http://www.w3.org/2000/svg">
<g opacity="0.6">
<path d="M21 2.33334L25.6666 7.00001M2.33331 25.6667L3.82245 20.2065C3.9196 19.8503 3.96818 19.6722 4.04275 19.5061C4.10896 19.3586 4.19032 19.2184 4.28552 19.0877C4.39273 18.9406 4.52328 18.81 4.78437 18.549L16.84 6.49331C17.071 6.2623 17.1865 6.14679 17.3197 6.10352C17.4369 6.06545 17.5631 6.06545 17.6802 6.10352C17.8134 6.14679 17.9289 6.2623 18.1599 6.49331L21.5067 9.84004C21.7377 10.0711 21.8532 10.1866 21.8965 10.3197C21.9345 10.4369 21.9345 10.5631 21.8965 10.6803C21.8532 10.8135 21.7377 10.929 21.5067 11.16L9.45103 23.2156C9.18994 23.4767 9.0594 23.6073 8.91224 23.7145C8.78159 23.8097 8.64139 23.891 8.49391 23.9572C8.32782 24.0318 8.1497 24.0804 7.79347 24.1775L2.33331 25.6667Z" stroke="white" stroke-width="2" stroke-linecap="round" stroke-linejoin="round"/>
</g>
</svg>
