<svg width="28" height="28" viewBox="0 0 28 28" fill="none" xmlns="http://www.w3.org/2000/svg">
<g opacity="0.6">
<path d="M9.33331 9.33334V8.16667M9.33331 14.5833V13.4167M9.33331 19.8333V18.6667M7.93331 23.3333H20.0666C22.0268 23.3333 23.0069 23.3333 23.7556 22.9519C24.4142 22.6163 24.9496 22.0809 25.2852 21.4223C25.6666 20.6736 25.6666 19.6935 25.6666 17.7333V10.2667C25.6666 8.30649 25.6666 7.3264 25.2852 6.57771C24.9496 5.91914 24.4142 5.38371 23.7556 5.04815C23.0069 4.66667 22.0268 4.66667 20.0666 4.66667H7.93331C5.97313 4.66667 4.99304 4.66667 4.24435 5.04815C3.58578 5.38371 3.05035 5.91914 2.71479 6.57771C2.33331 7.3264 2.33331 8.30649 2.33331 10.2667V17.7333C2.33331 19.6935 2.33331 20.6736 2.71479 21.4223C3.05035 22.0809 3.58578 22.6163 4.24435 22.9519C4.99304 23.3333 5.97313 23.3333 7.93331 23.3333Z" stroke="white" stroke-width="2" stroke-linecap="round" stroke-linejoin="round"/>
</g>
</svg>
