<svg width="28" height="28" viewBox="0 0 28 28" fill="none" xmlns="http://www.w3.org/2000/svg">
<path opacity="0.6" d="M25.8856 26.3274H15.1243M1 27L8.4647 24.129C8.94215 23.9453 9.18088 23.8535 9.40423 23.7336C9.60262 23.6271 9.79174 23.5042 9.96963 23.3662C10.1699 23.2108 10.3508 23.0299 10.7125 22.6682L25.8856 7.49505C27.3715 6.00922 27.3715 3.60021 25.8856 2.11437C24.3998 0.628543 21.9908 0.628541 20.505 2.11437L5.33182 17.2875C4.97009 17.6492 4.78923 17.8301 4.63382 18.0304C4.49578 18.2082 4.37287 18.3974 4.26638 18.5958C4.14649 18.8191 4.05467 19.0578 3.87103 19.5353L1 27ZM1 27L3.76852 19.8019C3.96663 19.2869 4.06568 19.0293 4.23558 18.9113C4.38406 18.8082 4.56779 18.7693 4.74534 18.8032C4.94851 18.842 5.14363 19.0371 5.53386 19.4273L8.57272 22.4662C8.96295 22.8564 9.15807 23.0515 9.19686 23.2547C9.23077 23.4322 9.19178 23.616 9.08869 23.7644C8.97072 23.9343 8.71317 24.0334 8.19808 24.2315L1 27Z" stroke="white" stroke-width="2" stroke-linecap="round" stroke-linejoin="round"/>
</svg>
