<svg width="28" height="28" viewBox="0 0 28 28" fill="none" xmlns="http://www.w3.org/2000/svg">
<g opacity="0.6">
<path d="M10.5 10.5H10.5116M17.5 17.5H17.5116M18.6666 9.33333L9.33331 18.6667M11.0833 10.5C11.0833 10.8222 10.8221 11.0833 10.5 11.0833C10.1778 11.0833 9.91665 10.8222 9.91665 10.5C9.91665 10.1778 10.1778 9.91667 10.5 9.91667C10.8221 9.91667 11.0833 10.1778 11.0833 10.5ZM18.0833 17.5C18.0833 17.8222 17.8221 18.0833 17.5 18.0833C17.1778 18.0833 16.9166 17.8222 16.9166 17.5C16.9166 17.1778 17.1778 16.9167 17.5 16.9167C17.8221 16.9167 18.0833 17.1778 18.0833 17.5ZM25.6666 14C25.6666 20.4433 20.4433 25.6667 14 25.6667C7.55666 25.6667 2.33331 20.4433 2.33331 14C2.33331 7.55668 7.55666 2.33333 14 2.33333C20.4433 2.33333 25.6666 7.55668 25.6666 14Z" stroke="white" stroke-width="2" stroke-linecap="round" stroke-linejoin="round"/>
</g>
</svg>
