<svg width="28" height="28" viewBox="0 0 28 28" fill="none" xmlns="http://www.w3.org/2000/svg">
<g opacity="0.6">
<path d="M14 17.5C15.933 17.5 17.5 15.933 17.5 14C17.5 12.067 15.933 10.5 14 10.5C12.067 10.5 10.5 12.067 10.5 14C10.5 15.933 12.067 17.5 14 17.5Z" stroke="#FFFCFC" stroke-width="2" stroke-linecap="round" stroke-linejoin="round"/>
<path d="M21.8485 17.1818C21.7073 17.5017 21.6652 17.8566 21.7276 18.2006C21.7899 18.5447 21.954 18.8622 22.1985 19.1121L22.2621 19.1758C22.4593 19.3728 22.6158 19.6067 22.7225 19.8642C22.8293 20.1217 22.8842 20.3978 22.8842 20.6765C22.8842 20.9553 22.8293 21.2313 22.7225 21.4888C22.6158 21.7463 22.4593 21.9803 22.2621 22.1773C22.0651 22.3745 21.8312 22.531 21.5736 22.6377C21.3161 22.7445 21.0401 22.7994 20.7613 22.7994C20.4826 22.7994 20.2066 22.7445 19.949 22.6377C19.6915 22.531 19.4576 22.3745 19.2606 22.1773L19.1969 22.1136C18.947 21.8691 18.6295 21.7051 18.2855 21.6427C17.9414 21.5803 17.5865 21.6225 17.2666 21.7636C16.953 21.8981 16.6854 22.1213 16.497 22.4059C16.3085 22.6904 16.2074 23.0239 16.206 23.3652V23.5455C16.206 24.108 15.9826 24.6476 15.5848 25.0454C15.1869 25.4432 14.6474 25.6667 14.0848 25.6667C13.5222 25.6667 12.9827 25.4432 12.5849 25.0454C12.1871 24.6476 11.9636 24.108 11.9636 23.5455V23.45C11.9554 23.0989 11.8418 22.7585 11.6375 22.4729C11.4332 22.1872 11.1477 21.9697 10.8182 21.8485C10.4983 21.7073 10.1434 21.6652 9.79936 21.7276C9.4553 21.79 9.13782 21.954 8.88786 22.1985L8.82422 22.2621C8.62722 22.4593 8.39327 22.6158 8.13576 22.7226C7.87825 22.8293 7.60222 22.8842 7.32346 22.8842C7.0447 22.8842 6.76868 22.8293 6.51117 22.7226C6.25366 22.6158 6.01971 22.4593 5.82271 22.2621C5.62548 22.0651 5.46903 21.8312 5.36228 21.5737C5.25553 21.3162 5.20058 21.0401 5.20058 20.7614C5.20058 20.4826 5.25553 20.2066 5.36228 19.9491C5.46903 19.6916 5.62548 19.4576 5.82271 19.2606L5.88634 19.197C6.13085 18.947 6.29487 18.6295 6.35726 18.2855C6.41964 17.9414 6.37753 17.5866 6.23634 17.2667C6.1019 16.953 5.87866 16.6854 5.59411 16.497C5.30956 16.3085 4.97612 16.2074 4.63483 16.2061H4.45453C3.89194 16.2061 3.35241 15.9826 2.9546 15.5848C2.5568 15.187 2.33331 14.6474 2.33331 14.0848C2.33331 13.5223 2.5568 12.9827 2.9546 12.5849C3.35241 12.1871 3.89194 11.9636 4.45453 11.9636H4.54998C4.90103 11.9554 5.2415 11.8418 5.52712 11.6375C5.81273 11.4332 6.03028 11.1478 6.15149 10.8182C6.29268 10.4983 6.33479 10.1434 6.27241 9.79938C6.21002 9.45532 6.046 9.13784 5.80149 8.88788L5.73786 8.82424C5.54064 8.62724 5.38418 8.39329 5.27743 8.13578C5.17068 7.87827 5.11574 7.60225 5.11574 7.32349C5.11574 7.04473 5.17068 6.7687 5.27743 6.51119C5.38418 6.25368 5.54064 6.01973 5.73786 5.82273C5.93486 5.62551 6.16881 5.46905 6.42632 5.3623C6.68383 5.25555 6.95986 5.2006 7.23862 5.2006C7.51738 5.2006 7.7934 5.25555 8.05091 5.3623C8.30842 5.46905 8.54237 5.62551 8.73937 5.82273L8.80301 5.88636C9.05297 6.13087 9.37045 6.29489 9.71451 6.35728C10.0586 6.41966 10.4134 6.37755 10.7333 6.23636H10.8182C11.1319 6.10192 11.3994 5.87868 11.5878 5.59413C11.7763 5.30958 11.8774 4.97614 11.8788 4.63485V4.45455C11.8788 3.89197 12.1023 3.35243 12.5001 2.95462C12.8979 2.55682 13.4374 2.33333 14 2.33333C14.5626 2.33333 15.1021 2.55682 15.4999 2.95462C15.8977 3.35243 16.1212 3.89197 16.1212 4.45455V4.55C16.1226 4.89129 16.2237 5.22473 16.4121 5.50928C16.6006 5.79383 16.8681 6.01707 17.1818 6.15152C17.5017 6.2927 17.8565 6.33481 18.2006 6.27243C18.5447 6.21005 18.8621 6.04602 19.1121 5.80152L19.1757 5.73788C19.3727 5.54066 19.6067 5.3842 19.8642 5.27745C20.1217 5.1707 20.3977 5.11576 20.6765 5.11576C20.9553 5.11576 21.2313 5.1707 21.4888 5.27745C21.7463 5.3842 21.9802 5.54066 22.1773 5.73788C22.3745 5.93488 22.5309 6.16883 22.6377 6.42634C22.7444 6.68385 22.7994 6.95988 22.7994 7.23864C22.7994 7.5174 22.7444 7.79342 22.6377 8.05093C22.5309 8.30845 22.3745 8.54239 22.1773 8.73939L22.1136 8.80303C21.8691 9.05299 21.7051 9.37047 21.6427 9.71453C21.5803 10.0586 21.6224 10.4134 21.7636 10.7333V10.8182C21.8981 11.1319 22.1213 11.3994 22.4059 11.5879C22.6904 11.7763 23.0238 11.8774 23.3651 11.8788H23.5454C24.108 11.8788 24.6476 12.1023 25.0454 12.5001C25.4432 12.8979 25.6666 13.4374 25.6666 14C25.6666 14.5626 25.4432 15.1021 25.0454 15.4999C24.6476 15.8977 24.108 16.1212 23.5454 16.1212H23.45C23.1087 16.1226 22.7752 16.2237 22.4907 16.4121C22.2061 16.6006 21.9829 16.8681 21.8485 17.1818Z" stroke="#FFFCFC" stroke-width="2" stroke-linecap="round" stroke-linejoin="round"/>
</g>
</svg>
