<svg width="166" height="42" viewBox="0 0 166 42" fill="none" xmlns="http://www.w3.org/2000/svg">
<g clip-path="url(#clip0_0_3)">
<path d="M98.391 2.15656C99.1084 3.62141 100.439 3.9304 101.015 3.90179C98.2914 5.21786 96.7968 3.18654 95.9665 3.04348C95.2617 2.92203 95.0033 3.32959 95.0033 3.6443C95.2424 3.71297 95.2245 3.86365 95.2025 3.98763C95.9665 4.13068 96.5557 4.41678 97.295 5.27509C97.76 5.81494 97.8377 7.36362 97.76 7.99305C98.1253 7.84999 98.6567 7.99305 98.5239 8.73692C98.391 9.48079 97.2618 10.0816 97.0625 11.3118C96.9031 12.296 97.6158 12.9236 97.9925 13.1143C99.6531 12.9712 100.816 13.6007 101.214 14.0012C103.765 14.0241 105.067 15.8418 105.399 16.7478C105.687 16.8241 106.329 17.3601 106.595 18.8936C106.927 20.8105 105.233 22.6415 102.211 22.9277C99.1881 23.2138 98.0257 21.068 94.8372 18.6933C92.2864 16.7936 89.169 17.5203 87.9288 18.1211C90.2538 17.6633 93.5817 17.6633 96.2322 20.9249C98.2436 23.4004 100.185 24.2247 100.982 24.3582C100.384 25.5312 99.786 27.7342 100.384 30.8527C100.982 33.9712 105.067 35.2587 111.245 36.5176C117.422 37.7764 118.319 40.9713 118.551 41.9821C115.795 39.2069 110.547 39.35 104.137 39.0353C97.7268 38.7206 93.243 37.805 90.1873 33.5707C87.7428 30.1832 87.2646 25.5217 87.331 23.6143C88.9518 23.271 90.1096 22.5176 90.4863 22.1838C85.6703 24.7015 81.9504 21.1824 81.7844 19.38C81.6515 17.938 82.5483 17.0435 83.0133 16.7764C83.1242 16.4331 83.558 15.5691 84.4082 14.8595C85.2585 14.15 86.6887 13.9345 87.2978 13.9154C88.0683 13.2059 89.7669 13.0285 90.5195 13.0285C91.5823 12.4277 91.4494 10.9685 91.1505 10.4821C90.8516 9.99577 89.9216 9.33773 89.9216 8.56525C89.9216 7.94727 90.4085 7.92633 90.6523 7.99305C90.5972 7.44945 90.6258 6.14482 91.1837 5.27509C91.7417 4.40534 92.8776 4.03531 93.3758 3.95901C93.2961 3.68436 93.52 3.59661 93.6415 3.58708C93.4755 0.811876 94.5383 0.0966138 95.6675 0.0107828C96.7968 -0.0750483 97.4943 0.325497 98.391 2.15656Z" fill="#008CFC"/>
<path d="M12.279 28.7356L9.12628 23.6375H7.19041V28.7356H1.85291V12.0597H10.2601C14.4084 12.0597 17.4505 14.4897 17.4505 17.9678C17.4505 20.0165 16.289 21.7079 14.3808 22.6846L18.2249 28.7356H12.279ZM7.19041 16.1572V19.7783H9.62408C11.1174 19.7783 11.9748 18.9921 11.9748 17.9678C11.9748 16.9195 11.1174 16.1572 9.62408 16.1572H7.19041ZM34.7921 22.1844C34.7921 22.5894 34.7645 22.9705 34.7091 23.3755H23.6194C23.9512 24.8525 25.0298 25.6148 26.6614 25.6148C27.8506 25.6148 28.8739 25.1622 29.344 24.3999H34.4879C33.437 27.33 30.3949 29.1644 26.6614 29.1644C21.9877 29.1644 18.5585 26.2342 18.5585 22.3035C18.5585 18.3727 21.96 15.4664 26.6614 15.4664C31.4735 15.4664 34.7921 18.4204 34.7921 22.1844ZM26.6614 18.9445C25.1681 18.9445 24.1172 19.6353 23.7023 20.9218H29.7312C29.2887 19.6353 28.2102 18.9445 26.6614 18.9445ZM45.3184 15.4664C49.8816 15.4664 53.1448 18.3012 53.1448 22.3035C53.1448 26.3295 49.8816 29.1882 45.3184 29.1882C43.9633 29.1882 42.7188 28.8785 41.6679 28.3306V33.381H36.5793V15.8714H40.0916L40.7277 16.8957C41.9445 15.9904 43.5208 15.4664 45.3184 15.4664ZM44.627 25.2574C46.5353 25.2574 47.9733 23.9949 47.9733 22.3035C47.9733 20.6359 46.5353 19.3733 44.627 19.3733C42.6912 19.3733 41.2807 20.6359 41.2807 22.3035C41.2807 23.9949 42.6912 25.2574 44.627 25.2574ZM54.9313 28.7356V11.226H60.0751V28.7356H54.9313ZM72.8447 15.8714H78.3754L72.0981 28.1639C70.0787 32.1184 68.254 33.524 64.382 33.524H62.6121V29.7361H64.0502C66.0137 29.7361 66.5946 29.2835 67.2861 27.6874L61.1187 15.8714H66.7049L69.8854 22.9705L72.8447 15.8714Z" fill="white"/>
<path d="M123.795 22.1844C123.795 22.5894 123.767 22.9705 123.712 23.3755H112.622C112.954 24.8525 114.032 25.6148 115.664 25.6148C116.853 25.6148 117.876 25.1622 118.346 24.3999H123.49C122.439 27.33 119.397 29.1644 115.664 29.1644C110.99 29.1644 107.561 26.2342 107.561 22.3035C107.561 18.3727 110.962 15.4664 115.664 15.4664C120.476 15.4664 123.795 18.4204 123.795 22.1844ZM115.664 18.9445C114.17 18.9445 113.119 19.6353 112.705 20.9218H118.734C118.291 19.6353 117.212 18.9445 115.664 18.9445ZM134.321 15.514C137.777 15.514 140.073 17.6342 140.073 20.8979V28.7356H134.929V21.5173C134.929 20.0165 134.265 19.278 132.965 19.278C131.361 19.278 130.449 20.2309 130.449 21.8747V28.7356H125.305V15.8714H128.928L129.62 17.2054C130.726 16.1334 132.385 15.514 134.321 15.514ZM142.328 14.2753V10.5113H147.417V14.2753H142.328ZM142.3 28.7356V15.8714H147.444V28.7356H142.3ZM165.219 22.1844C165.219 22.5894 165.192 22.9705 165.136 23.3755H154.046C154.378 24.8525 155.457 25.6148 157.088 25.6148C158.277 25.6148 159.301 25.1622 159.771 24.3999H164.915C163.864 27.33 160.822 29.1644 157.088 29.1644C152.414 29.1644 148.986 26.2342 148.986 22.3035C148.986 18.3727 152.387 15.4664 157.088 15.4664C161.9 15.4664 165.219 18.4204 165.219 22.1844ZM157.088 18.9445C155.595 18.9445 154.544 19.6353 154.129 20.9218H160.158C159.715 19.6353 158.637 18.9445 157.088 18.9445Z" fill="white"/>
</g>
<defs>
<clipPath id="clip0_0_3">
<rect width="166" height="42" fill="white"/>
</clipPath>
</defs>
</svg>
